<svg   fill="none" xmlns="http://www.w3.org/2000/svg">
<path d="M1 0H1445V776L1434.01 767.35C1347.44 699.184 1236.57 669.752 1127.59 686L956.988 711.433C852.61 726.993 746.474 698.281 664.176 632.221L629.704 604.551C543.235 535.142 425.825 518.341 323.36 560.713V560.713C217.357 604.548 95.7031 584.956 8.82164 510.058L1 503.315V0Z" fill="url(#paint0_linear_2_5)"/>
<path d="M0 337L296.85 213.368C371.703 182.194 454.263 174.504 533.585 191.319L851.896 258.794C960.8 281.88 1074.4 258.537 1165.37 194.378L1441 0V146.5L1166.12 322.612C1074.48 381.32 962.883 400.157 857.055 374.779L542.298 299.298C457.61 278.989 368.608 286.874 288.809 321.756L0 448V337Z" fill="#333ED0" fill-opacity="0.4"/>
<path d="M0.5 503V503C66.9965 563.701 162.633 580.391 245.76 545.803L294.877 525.365C405.768 479.224 533.243 500.098 623.625 579.199L662.835 613.516C754.818 694.018 878.627 727.917 998.79 705.5L1116.76 683.491C1196.82 668.556 1279.55 679.614 1352.87 715.049L1361.5 719.217C1390.01 732.995 1416.3 750.954 1439.5 772.5V772.5L1404.5 749.5L1360.55 727.525C1279.58 687.042 1187.28 675.219 1098.73 693.988L983.24 718.465C872.039 742.033 756.061 717.176 664.286 650.105L606.013 607.517C525.132 548.407 419.508 535.127 326.512 572.374L273.814 593.482C172.832 633.928 57.3989 595.713 0.5 503V503Z" fill="#E6FFEE"/>
<defs>
<linearGradient id="paint0_linear_2_5" x1="723" y1="-14.6415" x2="723" y2="678.529" gradientUnits="userSpaceOnUse">
<stop stop-color="#361CC1"/>
<stop offset="0.845" stop-color="#2F78EA"/>
</linearGradient>
</defs>
</svg>
