<svg width="1440" height="776" viewBox="0 0 1440 776" fill="none" xmlns="http://www.w3.org/2000/svg">
<path d="M1439 776L-5 776V0L5.98633 8.65015C92.5631 76.8163 203.426 106.248 312.413 90.0004L483.012 64.5674C587.39 49.0067 693.526 77.7186 775.824 143.779L810.296 171.449C896.765 240.858 1014.17 257.659 1116.64 215.287C1222.64 171.452 1344.3 191.044 1431.18 265.942L1439 272.685V776Z" fill="url(#paint0_linear_2_5)"/>
<path d="M1440 439L1143.15 562.632C1068.3 593.806 985.737 601.496 906.415 584.681L588.104 517.206C479.2 494.12 365.602 517.463 274.625 581.622L-1 776V629.5L273.883 453.388C365.517 394.68 477.117 375.843 582.945 401.221L897.702 476.702C982.39 497.011 1071.39 489.126 1151.19 454.244L1440 328V439Z" fill="#333ED0" fill-opacity="0.4"/>
<path d="M1439.5 273C1373 212.299 1277.37 195.609 1194.24 230.197L1145.12 250.635C1034.23 296.776 906.757 275.902 816.375 196.801L777.165 162.484C685.182 81.9816 561.373 48.0828 441.21 70.5003L323.237 92.5091C243.182 107.444 160.449 96.3859 87.1272 60.9505L78.5038 56.783C49.9945 43.0049 23.7032 25.0458 0.5 3.5L35.5 26.5L79.4507 48.4753C160.415 88.9577 252.717 100.781 341.271 82.0122L456.76 57.5351C567.961 33.9666 683.939 58.8236 775.714 125.895L833.987 168.483C914.868 227.593 1020.49 240.873 1113.49 203.626L1166.19 182.518C1267.17 142.072 1382.6 180.287 1439.5 273Z" fill="#E6FFEE"/>
<defs>
<linearGradient id="paint0_linear_2_5" x1="717" y1="790.642" x2="717" y2="97.4707" gradientUnits="userSpaceOnUse">
<stop stop-color="#361CC1"/>
<stop offset="0.845" stop-color="#2F78EA"/>
</linearGradient>
</defs>
</svg>
