<svg width="1082" height="592" viewBox="0 0 1082 592" fill="none" xmlns="http://www.w3.org/2000/svg">
<circle cx="16" cy="576" r="16" fill="#81E2CF"/>
<circle cx="86" cy="576" r="16" fill="#81E2CF"/>
<circle cx="156" cy="576" r="16" fill="#81E2CF"/>
<circle cx="226" cy="576" r="16" fill="#81E2CF"/>
<circle cx="296" cy="576" r="16" fill="#81E2CF"/>
<circle cx="366" cy="576" r="16" fill="#81E2CF"/>
<circle cx="436" cy="576" r="16" fill="#81E2CF"/>
<circle cx="506" cy="576" r="16" fill="#81E2CF"/>
<circle cx="576" cy="576" r="16" fill="#81E2CF"/>
<circle cx="646" cy="576" r="16" fill="#81E2CF"/>
<circle cx="716" cy="576" r="16" fill="#81E2CF"/>
<circle cx="786" cy="576" r="16" fill="#81E2CF"/>
<circle cx="856" cy="576" r="16" fill="#81E2CF"/>
<circle cx="926" cy="576" r="16" fill="#81E2CF"/>
<circle cx="996" cy="576" r="16" fill="#81E2CF"/>
<circle cx="1066" cy="576" r="16" fill="#81E2CF"/>
<circle cx="16" cy="520" r="16" fill="#81E2CF"/>
<circle cx="86" cy="520" r="16" fill="#81E2CF"/>
<circle cx="156" cy="520" r="16" fill="#81E2CF"/>
<circle cx="226" cy="520" r="16" fill="#81E2CF"/>
<circle cx="296" cy="520" r="16" fill="#81E2CF"/>
<circle cx="366" cy="520" r="16" fill="#81E2CF"/>
<circle cx="436" cy="520" r="16" fill="#81E2CF"/>
<circle cx="506" cy="520" r="16" fill="#81E2CF"/>
<circle cx="576" cy="520" r="16" fill="#81E2CF"/>
<circle cx="646" cy="520" r="16" fill="#81E2CF"/>
<circle cx="716" cy="520" r="16" fill="#81E2CF"/>
<circle cx="786" cy="520" r="16" fill="#81E2CF"/>
<circle cx="856" cy="520" r="16" fill="#81E2CF"/>
<circle cx="926" cy="520" r="16" fill="#81E2CF"/>
<circle cx="996" cy="520" r="16" fill="#81E2CF"/>
<circle cx="1066" cy="520" r="16" fill="#81E2CF"/>
<circle cx="16" cy="464" r="16" fill="#81E2CF"/>
<circle cx="86" cy="464" r="16" fill="#81E2CF"/>
<circle cx="156" cy="464" r="16" fill="#81E2CF"/>
<circle cx="226" cy="464" r="16" fill="#81E2CF"/>
<circle cx="296" cy="464" r="16" fill="#81E2CF"/>
<circle cx="366" cy="464" r="16" fill="#81E2CF"/>
<circle cx="436" cy="464" r="16" fill="#81E2CF"/>
<circle cx="506" cy="464" r="16" fill="#81E2CF"/>
<circle cx="576" cy="464" r="16" fill="#81E2CF"/>
<circle cx="646" cy="464" r="16" fill="#81E2CF"/>
<circle cx="716" cy="464" r="16" fill="#81E2CF"/>
<circle cx="786" cy="464" r="16" fill="#81E2CF"/>
<circle cx="856" cy="464" r="16" fill="#81E2CF"/>
<circle cx="926" cy="464" r="16" fill="#81E2CF"/>
<circle cx="996" cy="464" r="16" fill="#81E2CF"/>
<circle cx="1066" cy="464" r="16" fill="#81E2CF"/>
<circle cx="16" cy="408" r="16" fill="#81E2CF"/>
<circle cx="86" cy="408" r="16" fill="#81E2CF"/>
<circle cx="156" cy="408" r="16" fill="#81E2CF"/>
<circle cx="226" cy="408" r="16" fill="#81E2CF"/>
<circle cx="296" cy="408" r="16" fill="#81E2CF"/>
<circle cx="366" cy="408" r="16" fill="#81E2CF"/>
<circle cx="436" cy="408" r="16" fill="#81E2CF"/>
<circle cx="506" cy="408" r="16" fill="#81E2CF"/>
<circle cx="576" cy="408" r="16" fill="#81E2CF"/>
<circle cx="646" cy="408" r="16" fill="#81E2CF"/>
<circle cx="716" cy="408" r="16" fill="#81E2CF"/>
<circle cx="786" cy="408" r="16" fill="#81E2CF"/>
<circle cx="856" cy="408" r="16" fill="#81E2CF"/>
<circle cx="926" cy="408" r="16" fill="#81E2CF"/>
<circle cx="996" cy="408" r="16" fill="#81E2CF"/>
<circle cx="1066" cy="408" r="16" fill="#81E2CF"/>
<circle cx="16" cy="352" r="16" fill="#81E2CF"/>
<circle cx="86" cy="352" r="16" fill="#81E2CF"/>
<circle cx="156" cy="352" r="16" fill="#81E2CF"/>
<circle cx="226" cy="352" r="16" fill="#81E2CF"/>
<circle cx="296" cy="352" r="16" fill="#81E2CF"/>
<circle cx="366" cy="352" r="16" fill="#81E2CF"/>
<circle cx="436" cy="352" r="16" fill="#81E2CF"/>
<circle cx="506" cy="352" r="16" fill="#81E2CF"/>
<circle cx="576" cy="352" r="16" fill="#81E2CF"/>
<circle cx="646" cy="352" r="16" fill="#81E2CF"/>
<circle cx="716" cy="352" r="16" fill="#81E2CF"/>
<circle cx="786" cy="352" r="16" fill="#81E2CF"/>
<circle cx="856" cy="352" r="16" fill="#81E2CF"/>
<circle cx="926" cy="352" r="16" fill="#81E2CF"/>
<circle cx="996" cy="352" r="16" fill="#81E2CF"/>
<circle cx="1066" cy="352" r="16" fill="#81E2CF"/>
<circle cx="16" cy="296" r="16" fill="#81E2CF"/>
<circle cx="86" cy="296" r="16" fill="#81E2CF"/>
<circle cx="156" cy="296" r="16" fill="#81E2CF"/>
<circle cx="226" cy="296" r="16" fill="#81E2CF"/>
<circle cx="296" cy="296" r="16" fill="#81E2CF"/>
<circle cx="366" cy="296" r="16" fill="#81E2CF"/>
<circle cx="436" cy="296" r="16" fill="#81E2CF"/>
<circle cx="506" cy="296" r="16" fill="#81E2CF"/>
<circle cx="576" cy="296" r="16" fill="#81E2CF"/>
<circle cx="646" cy="296" r="16" fill="#81E2CF"/>
<circle cx="716" cy="296" r="16" fill="#81E2CF"/>
<circle cx="786" cy="296" r="16" fill="#81E2CF"/>
<circle cx="856" cy="296" r="16" fill="#81E2CF"/>
<circle cx="926" cy="296" r="16" fill="#81E2CF"/>
<circle cx="996" cy="296" r="16" fill="#81E2CF"/>
<circle cx="1066" cy="296" r="16" fill="#81E2CF"/>
<circle cx="16" cy="240" r="16" fill="#81E2CF"/>
<circle cx="86" cy="240" r="16" fill="#81E2CF"/>
<circle cx="156" cy="240" r="16" fill="#81E2CF"/>
<circle cx="226" cy="240" r="16" fill="#81E2CF"/>
<circle cx="296" cy="240" r="16" fill="#81E2CF"/>
<circle cx="366" cy="240" r="16" fill="#81E2CF"/>
<circle cx="436" cy="240" r="16" fill="#81E2CF"/>
<circle cx="506" cy="240" r="16" fill="#81E2CF"/>
<circle cx="576" cy="240" r="16" fill="#81E2CF"/>
<circle cx="646" cy="240" r="16" fill="#81E2CF"/>
<circle cx="716" cy="240" r="16" fill="#81E2CF"/>
<circle cx="786" cy="240" r="16" fill="#81E2CF"/>
<circle cx="856" cy="240" r="16" fill="#81E2CF"/>
<circle cx="926" cy="240" r="16" fill="#81E2CF"/>
<circle cx="996" cy="240" r="16" fill="#81E2CF"/>
<circle cx="1066" cy="240" r="16" fill="#81E2CF"/>
<circle cx="16" cy="184" r="16" fill="#81E2CF"/>
<circle cx="86" cy="184" r="16" fill="#81E2CF"/>
<circle cx="156" cy="184" r="16" fill="#81E2CF"/>
<circle cx="226" cy="184" r="16" fill="#81E2CF"/>
<circle cx="296" cy="184" r="16" fill="#81E2CF"/>
<circle cx="366" cy="184" r="16" fill="#81E2CF"/>
<circle cx="436" cy="184" r="16" fill="#81E2CF"/>
<circle cx="506" cy="184" r="16" fill="#81E2CF"/>
<circle cx="576" cy="184" r="16" fill="#81E2CF"/>
<circle cx="646" cy="184" r="16" fill="#81E2CF"/>
<circle cx="716" cy="184" r="16" fill="#81E2CF"/>
<circle cx="786" cy="184" r="16" fill="#81E2CF"/>
<circle cx="856" cy="184" r="16" fill="#81E2CF"/>
<circle cx="926" cy="184" r="16" fill="#81E2CF"/>
<circle cx="996" cy="184" r="16" fill="#81E2CF"/>
<circle cx="1066" cy="184" r="16" fill="#81E2CF"/>
<circle cx="16" cy="128" r="16" fill="#81E2CF"/>
<circle cx="86" cy="128" r="16" fill="#81E2CF"/>
<circle cx="156" cy="128" r="16" fill="#81E2CF"/>
<circle cx="226" cy="128" r="16" fill="#81E2CF"/>
<circle cx="296" cy="128" r="16" fill="#81E2CF"/>
<circle cx="366" cy="128" r="16" fill="#81E2CF"/>
<circle cx="436" cy="128" r="16" fill="#81E2CF"/>
<circle cx="506" cy="128" r="16" fill="#81E2CF"/>
<circle cx="576" cy="128" r="16" fill="#81E2CF"/>
<circle cx="646" cy="128" r="16" fill="#81E2CF"/>
<circle cx="716" cy="128" r="16" fill="#81E2CF"/>
<circle cx="786" cy="128" r="16" fill="#81E2CF"/>
<circle cx="856" cy="128" r="16" fill="#81E2CF"/>
<circle cx="926" cy="128" r="16" fill="#81E2CF"/>
<circle cx="996" cy="128" r="16" fill="#81E2CF"/>
<circle cx="1066" cy="128" r="16" fill="#81E2CF"/>
<circle cx="16" cy="72" r="16" fill="#81E2CF"/>
<circle cx="86" cy="72" r="16" fill="#81E2CF"/>
<circle cx="156" cy="72" r="16" fill="#81E2CF"/>
<circle cx="226" cy="72" r="16" fill="#81E2CF"/>
<circle cx="296" cy="72" r="16" fill="#81E2CF"/>
<circle cx="366" cy="72" r="16" fill="#81E2CF"/>
<circle cx="436" cy="72" r="16" fill="#81E2CF"/>
<circle cx="506" cy="72" r="16" fill="#81E2CF"/>
<circle cx="576" cy="72" r="16" fill="#81E2CF"/>
<circle cx="646" cy="72" r="16" fill="#81E2CF"/>
<circle cx="716" cy="72" r="16" fill="#81E2CF"/>
<circle cx="786" cy="72" r="16" fill="#81E2CF"/>
<circle cx="856" cy="72" r="16" fill="#81E2CF"/>
<circle cx="926" cy="72" r="16" fill="#81E2CF"/>
<circle cx="996" cy="72" r="16" fill="#81E2CF"/>
<circle cx="1066" cy="72" r="16" fill="#81E2CF"/>
<circle cx="16" cy="16" r="16" fill="#81E2CF"/>
<circle cx="86" cy="16" r="16" fill="#81E2CF"/>
<circle cx="156" cy="16" r="16" fill="#81E2CF"/>
<circle cx="226" cy="16" r="16" fill="#81E2CF"/>
<circle cx="296" cy="16" r="16" fill="#81E2CF"/>
<circle cx="366" cy="16" r="16" fill="#81E2CF"/>
<circle cx="436" cy="16" r="16" fill="#81E2CF"/>
<circle cx="506" cy="16" r="16" fill="#81E2CF"/>
<circle cx="576" cy="16" r="16" fill="#81E2CF"/>
<circle cx="646" cy="16" r="16" fill="#81E2CF"/>
<circle cx="716" cy="16" r="16" fill="#81E2CF"/>
<circle cx="786" cy="16" r="16" fill="#81E2CF"/>
<circle cx="856" cy="16" r="16" fill="#81E2CF"/>
<circle cx="926" cy="16" r="16" fill="#81E2CF"/>
<circle cx="996" cy="16" r="16" fill="#81E2CF"/>
<circle cx="1066" cy="16" r="16" fill="#81E2CF"/>
</svg>
