<svg width="1015" height="916" viewBox="0 0 1015 916" fill="none" xmlns="http://www.w3.org/2000/svg">
<path d="M128.988 293.32C212.796 240.02 314.5 222.617 411.262 245.018L493.741 264.113C579.192 283.895 668.652 277.024 750.079 244.424L760.481 240.26C854.883 202.465 934.291 134.762 986.538 47.5241L1015 0V915.5V915.5C943.781 862.902 860.786 826.553 773.756 810.292L750.351 805.92C668.133 790.559 583.36 796.338 503.987 822.714L366.149 868.519C322.208 883.122 274.745 883.266 230.716 868.931V868.931C163.87 847.167 108.104 800.27 75.1975 738.148L32.5925 657.717C-35.2189 529.699 6.74596 371.062 128.988 293.32V293.32Z" fill="#CCFFEE"/>
</svg>
